<svg version="1.1" xmlns="http://www.w3.org/2000/svg" viewBox="180 55 280 260">
<path fill="#000000" d="
M191.002319,182.005798
C191.934189,179.099167 192.488632,175.999527 193.859985,173.317612
C201.986038,157.425812 210.306351,141.633408 218.551697,125.802528
C224.736420,113.927971 230.571747,101.850334 237.313904,90.301712
C239.043671,87.338821 243.365555,85.271317 246.926285,84.109901
C258.082733,80.470955 269.448364,77.474869 280.724731,74.201469
C287.063110,72.361519 293.383301,70.459129 299.715240,68.597031
C307.773956,66.227135 315.826202,63.833958 323.906647,61.540501
C325.312927,61.141357 326.846893,61.037365 328.318604,61.055882
C331.286346,61.093227 332.264923,62.616417 330.913361,65.286819
C326.752197,73.508263 322.529175,81.698494 318.312042,89.891502
C317.120148,92.207062 315.525421,94.384987 314.768036,96.828316
C314.314240,98.292328 314.604553,100.516373 315.477509,101.749687
C317.179596,104.154388 319.440918,106.194557 321.623291,108.221283
C325.912140,112.204178 325.401794,114.857468 320.146423,117.571892
C313.047791,121.238365 305.685577,124.613892 299.190674,129.185760
C284.322845,139.651535 271.414825,152.219604 262.105804,168.057220
C259.525879,172.446487 257.476074,177.147018 255.175995,181.701172
C253.408615,185.200638 251.259293,186.042267 248.324905,182.820633
C245.533249,179.755722 242.706375,176.711288 239.711563,173.849823
C238.763809,172.944260 237.040939,171.933807 235.987579,172.203018
C228.955078,174.000427 222.003937,176.118317 215.043427,178.189438
C214.670700,178.300323 214.451859,178.928452 214.050919,179.463135
C216.603043,184.078171 219.063980,188.753586 221.788315,193.270126
C222.352158,194.204895 223.836411,194.707504 224.997086,195.137863
C229.917191,196.962112 232.653275,199.934143 233.353912,205.613708
C233.798599,209.218506 236.600311,212.621307 238.674866,215.906403
C240.163254,218.263321 242.262924,220.225281 243.973450,222.452850
C246.857117,226.208160 246.402908,230.662903 242.299637,232.857422
C238.751984,234.754776 234.732956,236.086319 230.770798,236.718765
C229.417740,236.934753 226.751801,234.558090 226.174164,232.859772
C224.857590,228.988770 224.956680,224.621994 223.547043,220.801086
C222.243073,217.266617 219.448868,214.309464 217.828979,210.855148
C216.569550,208.169495 215.319550,205.067307 215.474091,202.226883
C215.708572,197.917358 210.487518,183.209625 206.871841,180.937897
C206.294785,180.575302 205.279083,180.910843 204.084335,180.633667
C203.466476,180.594315 203.230453,180.844925 202.994415,181.095520
C198.537003,181.052536 194.769669,181.529175 191.002319,182.005798
M260.482544,111.061569
C269.584747,105.637848 278.335602,99.447693 287.911743,95.057808
C294.376434,92.094284 301.660461,86.210991 309.241821,93.949638
C313.317993,85.627777 317.167999,77.767700 321.390472,69.147118
C300.138153,75.396957 280.249329,81.528107 260.193665,87.053940
C244.311096,91.429985 241.328644,93.489128 235.582153,105.883850
C231.649902,114.365364 227.276764,122.644386 223.026245,130.975937
C217.737915,141.341690 212.127838,151.555084 207.251633,162.109146
C206.298721,164.171585 207.483093,167.834259 208.817627,170.085449
C209.497452,171.232254 212.796310,171.436920 214.742737,171.098373
C219.122101,170.336639 223.416275,169.040894 227.706482,167.826019
C230.628845,166.998459 231.022614,165.240738 229.783264,162.469589
C229.002991,160.724930 228.433212,158.340927 228.982712,156.634567
C232.779968,144.842987 239.095764,134.422424 247.278748,125.161774
C251.380524,120.519783 255.736435,116.102356 260.482544,111.061569
M281.442596,134.922546
C292.488525,126.808479 303.534424,118.694427 314.705109,110.488708
C311.089172,106.693756 306.873840,102.017143 302.314270,97.704437
C301.436218,96.873886 299.042419,97.000969 297.635651,97.499092
C293.904327,98.820343 290.286224,100.492867 286.701111,102.190369
C263.004791,113.410156 246.615494,131.652542 235.977310,155.325134
C235.375366,156.664612 235.042984,159.044479 235.786346,159.918396
C240.233337,165.146545 245.032806,170.074860 250.520920,175.970505
C257.686462,159.340225 268.664429,146.870178 281.442596,134.922546
M229.689972,219.335678
C230.333267,222.231918 230.727585,225.223709 231.778992,227.963318
C232.075546,228.736023 234.735779,229.472778 235.530807,228.975998
C236.683517,228.255737 238.109711,225.793625 237.702164,225.131851
C235.904846,222.213272 233.491882,219.673782 231.301910,216.996979
C230.660019,217.549469 230.018127,218.101944 229.689972,219.335678 z"/>
<path fill="#000000" d="
M412.952942,203.880981
C412.487122,216.193283 408.847717,227.572250 402.185120,237.847031
C399.955353,241.285675 398.839783,243.661682 402.901581,246.296982
C405.505554,247.986435 407.846375,250.081390 410.776550,252.405518
C411.859375,252.868240 412.470795,252.920029 413.082214,252.971817
C413.082214,252.971817 412.998535,252.983932 412.773926,253.383667
C413.582245,253.933273 414.028351,254.860260 414.563965,254.933884
C415.099548,255.007507 414.993530,255.007263 414.743256,255.398865
C415.563446,255.936768 416.040405,255.722198 416.098663,256.009918
C416.098663,256.009918 416.004639,256.005157 415.680237,256.315430
C416.688141,256.357758 417.175293,257.531342 418.065704,257.617615
C418.085022,257.984161 417.998444,257.988556 417.741486,258.388641
C418.560120,258.932159 419.039337,258.717743 419.097900,259.003876
C419.097900,259.003876 418.996887,259.003265 418.741119,259.395996
C419.560547,259.932770 420.039734,259.718719 420.098145,260.004822
C420.098145,260.004822 419.996033,260.004089 419.740234,260.396545
C420.560242,260.932892 421.039642,260.718567 421.098145,261.004822
C421.098145,261.004822 420.996063,261.004089 420.739929,261.396515
C421.560211,261.933716 422.039978,261.719635 422.098419,262.006104
C422.098419,262.006104 421.994843,262.005249 421.740479,262.397217
C422.560852,262.933167 423.039612,262.718689 423.098236,263.005188
C423.098236,263.005188 422.996063,263.004242 422.740051,263.388855
C423.560913,263.931030 424.041046,263.722534 424.099335,264.009827
C424.099335,264.009827 423.991394,264.008636 423.758789,264.398254
C424.574371,264.933472 425.039612,264.719086 425.098450,265.006287
C425.098450,265.006287 425.016724,264.997498 424.666718,265.209686
C425.495911,266.525848 426.085510,267.077850 426.085510,267.077850
C426.085510,267.077850 425.928741,267.069214 426.041962,267.402588
C426.799316,267.814911 427.443420,267.893921 428.087555,267.972900
C428.087555,267.972900 428.000275,267.983215 427.737976,268.387054
C428.561798,268.936127 429.039429,268.724213 429.104889,269.008728
C429.104889,269.008728 428.992737,269.007629 428.734009,269.399231
C429.561554,269.935699 430.039124,269.723633 430.104675,270.008087
C430.104675,270.008087 429.993256,270.007050 429.734558,270.398865
C430.561737,270.935638 431.039215,270.723694 431.104675,271.008087
C431.104675,271.008087 430.993256,271.007050 430.734589,271.398865
C431.561768,271.935638 432.039215,271.723724 432.104675,272.008118
C432.104675,272.008118 431.993225,272.007111 431.734497,272.398926
C432.561768,272.935791 433.039276,272.723877 433.104736,273.008301
C433.104736,273.008331 432.993073,273.007263 432.734406,273.398987
C433.561646,273.935547 434.039124,273.723572 434.104614,274.007996
C434.104614,274.007996 433.993347,274.006989 433.734711,274.398773
C434.561737,274.935486 435.039124,274.723572 435.104584,275.007935
C435.104584,275.007935 434.993408,275.006927 434.734650,275.398804
C435.561798,275.935883 436.039337,275.724030 436.104767,276.008453
C436.104767,276.008453 435.992950,276.007385 435.734192,276.399109
C436.561676,276.935913 437.039307,276.723938 437.104797,277.008453
C437.104797,277.008453 436.992950,277.007385 436.734131,277.399170
C437.561676,277.936066 438.039368,277.724091 438.104858,278.008636
C438.104858,278.008636 437.992767,278.007568 437.733948,278.399292
C438.561615,278.936096 439.039368,278.724091 439.104858,279.008667
C439.104858,279.008667 438.992828,279.007568 438.733765,279.398071
C439.561798,279.936188 440.039825,279.725159 440.105347,280.010010
C440.105347,280.010010 439.991516,280.008759 439.737244,280.399475
C440.564148,280.935516 441.039062,280.723511 441.104706,281.008148
C441.104706,281.008148 441.024902,281.001068 440.656799,281.166443
C440.840698,281.845428 441.392731,282.359039 441.944763,282.872650
C447.251892,290.918396 445.854431,297.155701 437.056793,303.672089
C436.768311,302.549469 436.512482,301.554016 436.247101,300.521301
C435.855286,300.699677 435.389893,300.772064 435.342712,300.953339
C434.129852,305.612915 427.373047,306.558289 422.901672,302.306763
C415.969513,295.715454 409.046326,289.072601 402.645569,281.976898
C396.767395,275.460602 391.376160,268.469055 386.200378,261.373230
C384.180756,258.604370 382.878479,258.977051 380.633698,260.628357
C371.417999,267.407654 361.053284,271.398804 348.875000,273.009949
C341.005920,272.662354 334.016968,272.335083 327.028046,272.007812
C320.478851,270.163361 313.511383,269.192047 307.465881,266.296112
C294.094147,259.890717 283.266205,250.195328 275.811218,237.213394
C273.195831,232.659027 271.431854,227.615738 269.199707,222.085266
C268.714813,220.901047 268.309326,220.427246 267.903809,219.953445
C267.903809,219.953445 268.023651,219.975143 268.240265,219.643280
C267.640656,214.196579 266.824463,209.081726 266.008240,203.966873
C265.581757,194.125122 265.756683,184.366547 270.206909,175.015274
C271.124847,175.226761 272.216705,175.478333 273.296295,175.727066
C273.561432,175.086517 273.848450,174.567902 273.785156,174.520920
C270.783295,172.291260 272.267151,170.227661 273.461090,167.547699
C279.475525,154.047272 289.060730,143.897186 301.735596,136.605362
C312.789185,130.246246 324.539886,127.203560 337.537109,126.668304
C352.306641,126.060059 365.509552,129.884567 377.638428,137.140091
C393.725372,146.763367 405.005310,160.694595 409.861206,179.977173
C410.574341,186.341110 411.634644,194.042679 412.952942,203.880981
M272.179718,189.379562
C271.154327,196.587341 269.753815,203.808426 272.964325,211.692261
C274.751343,221.822067 278.650940,231.249023 284.980469,239.162643
C289.963867,245.393219 296.028320,251.030197 302.467377,255.769470
C316.251282,265.914673 332.298370,269.259644 348.925323,266.600647
C368.580536,263.457428 384.725464,253.334076 395.393158,236.381119
C400.207367,228.730453 402.543976,219.520782 406.176178,210.192734
C406.118896,203.122726 406.061646,196.052734 405.976898,188.200150
C400.173828,166.695297 389.256317,149.195251 368.134949,139.591034
C350.584473,131.610565 332.856171,130.279648 314.733521,137.635956
C291.315277,147.141876 277.882843,164.681976 272.179718,189.379562
M400.311157,258.938812
C396.077362,262.361755 393.650177,259.865112 391.457489,257.273010
C389.308197,254.732224 389.658142,254.008865 395.529785,247.498032
C395.969299,252.235825 403.771240,252.601532 400.311157,258.938812 z"/>
<path fill="#000000" d="
M260.229980,111.322472
C255.736435,116.102356 251.380524,120.519783 247.278748,125.161774
C239.095764,134.422424 232.779968,144.842987 228.982712,156.634567
C228.433212,158.340927 229.002991,160.724930 229.783264,162.469589
C231.022614,165.240738 230.628845,166.998459 227.706482,167.826019
C223.416275,169.040894 219.122101,170.336639 214.742737,171.098373
C212.796310,171.436920 209.497452,171.232254 208.817627,170.085449
C207.483093,167.834259 206.298721,164.171585 207.251633,162.109146
C212.127838,151.555084 217.737915,141.341690 223.026245,130.975937
C227.276764,122.644386 231.649902,114.365364 235.582153,105.883850
C241.328644,93.489128 244.311096,91.429985 260.193665,87.053940
C280.249329,81.528107 300.138153,75.396957 321.390472,69.147118
C317.167999,77.767700 313.317993,85.627777 309.241821,93.949638
C301.660461,86.210991 294.376434,92.094284 287.911743,95.057808
C278.335602,99.447693 269.584747,105.637848 260.229980,111.322472 z"/>
<path fill="#000000" d="
M281.182190,135.162201
C268.664429,146.870178 257.686462,159.340225 250.520920,175.970505
C245.032806,170.074860 240.233337,165.146545 235.786346,159.918396
C235.042984,159.044479 235.375366,156.664612 235.977310,155.325134
C246.615494,131.652542 263.004791,113.410156 286.701111,102.190369
C290.286224,100.492867 293.904327,98.820343 297.635651,97.499092
C299.042419,97.000969 301.436218,96.873886 302.314270,97.704437
C306.873840,102.017143 311.089172,106.693756 314.705109,110.488708
C303.534424,118.694427 292.488525,126.808479 281.182190,135.162201 z"/>
<path fill="#000000" d="
M229.533112,218.995056
C230.018127,218.101944 230.660019,217.549469 231.301910,216.996979
C233.491882,219.673782 235.904846,222.213272 237.702164,225.131851
C238.109711,225.793625 236.683517,228.255737 235.530807,228.975998
C234.735779,229.472778 232.075546,228.736023 231.778992,227.963318
C230.727585,225.223709 230.333267,222.231918 229.533112,218.995056 z"/>
<path fill="#000000" d="
M406.004700,211.018433
C402.543976,219.520782 400.207367,228.730453 395.393158,236.381119
C384.725464,253.334076 368.580536,263.457428 348.925323,266.600647
C332.298370,269.259644 316.251282,265.914673 302.467377,255.769470
C296.028320,251.030197 289.963867,245.393219 284.980469,239.162643
C278.650940,231.249023 274.751343,221.822067 272.989990,210.820709
C272.989410,203.013763 272.963165,196.078354 272.936920,189.142960
C277.882843,164.681976 291.315277,147.141876 314.733521,137.635956
C332.856171,130.279648 350.584473,131.610565 368.134949,139.591034
C389.256317,149.195251 400.173828,166.695297 405.579224,188.757492
C405.651550,208.237701 406.090454,210.605591 406.004700,211.018433
M298.047546,243.514725
C299.028503,244.136841 300.085663,244.665680 300.979034,245.395065
C314.580444,256.499756 329.744965,261.811127 347.537048,259.063293
C365.075836,256.354614 378.854675,247.670914 388.760406,233.334213
C398.404816,219.375824 401.646423,203.584351 397.861511,186.933060
C394.099731,170.383621 384.949127,157.485672 369.958801,148.926239
C361.978821,144.369720 353.723724,141.225082 344.394806,141.059265
C335.439819,140.900070 326.561005,140.472015 317.959808,143.948135
C303.171509,149.924759 292.456696,160.031784 285.228149,174.233353
C278.962067,186.544052 278.603760,199.716522 280.688629,212.586777
C282.582794,224.280014 289.214233,234.365601 298.047546,243.514725 z"/>
<path fill="#000000" d="
M399.047455,270.130615
C401.762421,266.826935 404.340820,263.390564 407.311279,260.335236
C407.883057,259.747131 410.450714,260.157135 411.314972,260.954773
C415.642242,264.948517 419.781952,269.154907 423.847412,273.420197
C428.119263,277.902069 432.297638,282.477661 436.394196,287.120544
C439.687073,290.852600 438.596924,295.166382 435.568237,297.726685
C432.409576,300.396881 428.395813,299.099030 425.424438,295.925262
C424.870758,295.333862 424.093201,294.952026 423.213806,293.886414
C422.023041,291.923065 421.862579,292.898590 421.303009,292.370697
C420.996277,290.903656 419.996429,289.903687 418.996735,288.903778
C417.993927,287.902985 416.994629,286.903198 415.996948,285.903839
C414.996246,284.903656 413.996277,283.903656 412.990356,282.902130
C411.996643,281.903778 410.996185,280.903595 409.990143,279.902496
C408.988647,278.899658 407.995056,277.903290 406.992676,276.902832
C405.986450,275.901123 404.992218,274.901978 403.992126,273.902557
C402.990051,272.902100 401.989166,271.901978 400.987579,270.901703
C400.291504,270.269226 399.669495,270.199921 399.047455,270.130615 z"/>
<path fill="#000000" d="
M400.052460,259.185089
C396.077362,262.361755 393.650177,259.865112 391.457489,257.273010
C389.308197,254.732224 389.658142,254.008865 395.529785,247.498032
C395.969299,252.235825 403.771240,252.601532 400.052460,259.185089 z"/>
<path fill="#000000" d="
M297.770447,243.286194
C289.214233,234.365601 282.582794,224.280014 280.688629,212.586777
C278.603760,199.716522 278.962067,186.544052 285.228149,174.233353
C292.456696,160.031784 303.171509,149.924759 317.959808,143.948135
C326.561005,140.472015 335.439819,140.900070 344.394806,141.059265
C353.723724,141.225082 361.978821,144.369720 369.958801,148.926239
C384.949127,157.485672 394.099731,170.383621 397.861511,186.933060
C401.646423,203.584351 398.404816,219.375824 388.760406,233.334213
C378.854675,247.670914 365.075836,256.354614 347.537048,259.063293
C329.744965,261.811127 314.580444,256.499756 300.979034,245.395065
C300.085663,244.665680 299.028503,244.136841 297.770447,243.286194
M327.897705,252.663681
C330.339905,253.025879 332.805695,253.799820 335.219269,253.661789
C339.791077,253.400345 344.332977,252.615692 349.698212,251.989670
C364.940002,249.353363 375.565765,239.876144 384.305145,228.009079
C387.170502,224.118317 389.832092,219.495087 390.712097,214.851517
C392.314972,206.393356 393.506134,198.061615 391.427734,188.957687
C388.470581,176.004684 382.061981,165.874924 372.209900,157.988434
C359.211182,147.583054 343.940491,144.634445 327.706177,148.130630
C314.267609,151.024734 302.731262,157.790695 295.280731,169.396042
C284.158173,186.721146 282.470917,205.046677 292.019501,223.997696
C299.538910,238.921356 311.990967,247.274292 327.897705,252.663681 z"/>
<path fill="#000000" d="
M327.351410,252.167664
C311.990967,247.274292 299.538910,238.921356 292.019501,223.997696
C282.470917,205.046677 284.158173,186.721146 295.280731,169.396042
C302.731262,157.790695 314.267609,151.024734 327.706177,148.130630
C343.940491,144.634445 359.211182,147.583054 372.209900,157.988434
C382.061981,165.874924 388.470581,176.004684 391.427734,188.957687
C393.506134,198.061615 392.314972,206.393356 390.712097,214.851517
C389.832092,219.495087 387.170502,224.118317 384.305145,228.009079
C375.565765,239.876144 364.940002,249.353363 348.833191,251.975586
C341.095886,252.030212 334.223663,252.098938 327.351410,252.167664 z"/>
</svg>
